<?xml version="1.0" encoding="utf-8"?>
<!-- Generator: Adobe Illustrator 22.1.0, SVG Export Plug-In . SVG Version: 6.00 Build 0)  -->
<svg version="1.1" id="Layer_1" xmlns="http://www.w3.org/2000/svg" xmlns:xlink="http://www.w3.org/1999/xlink" x="0px" y="0px"
	 viewBox="0 0 144 114" style="enable-background:new 0 0 144 114;" xml:space="preserve">
<style type="text/css">
	.st0{fill:#7A4C08;}
	.st1{fill:#FFFFFF;}
	.st2{fill:#E6E8E8;}
	.st3{fill:#82EBE3;}
	.st4{fill:#D9DBDB;}
	.st5{fill:#FFB031;}
	.st6{fill:#FF9433;}
</style>
<g>
	<g>
		<g>
			<g>
				<g>
					<path class="st0" d="M119,62L72,89.7L24.9,62c0,0,0-0.1,0-0.1c0-0.2,2.6-2.3,6.6-5.6c0,0,0.1-0.1,0.1-0.1
						C44.6,45.7,72,24.1,72,24.1s27.3,21.6,40.3,32.1C116.3,59.5,118.9,61.7,119,62C119,61.9,119,62,119,62z"/>
					<g>
						<path class="st1" d="M91.3,1.1H40.5c-4.4,0-7.9,3.5-7.9,7.9v76.7c0,4.4,3.5,7.9,7.9,7.9h63.6c4.4,0,7.9-3.5,7.9-7.9V21.9
							L91.3,1.1z"/>
						<path class="st2" d="M91.3,14c0,4.4,3.5,7.9,7.9,7.9H112L91.3,1.1V14z"/>
						<path class="st3" d="M65.1,14.1H47.4c-1.5,0-2.7,1.2-2.7,2.7v17.7c0,1.5,1.2,2.7,2.7,2.7h17.7c1.5,0,2.7-1.2,2.7-2.7V16.8
							C67.8,15.3,66.6,14.1,65.1,14.1z"/>
						<path class="st4" d="M89,43.7H47c-1.2,0-2.3,1-2.3,2.3l0,0c0,1.2,1,2.3,2.3,2.3h42c1.2,0,2.3-1,2.3-2.3l0,0
							C91.2,44.7,90.2,43.7,89,43.7z"/>
						<path class="st4" d="M89,54.9H47c-1.2,0-2.3,1-2.3,2.3l0,0c0,1.2,1,2.3,2.3,2.3h42c1.2,0,2.3-1,2.3-2.3l0,0
							C91.2,56,90.2,54.9,89,54.9z"/>
						<path class="st4" d="M69.9,65.9H47c-1.2,0-2.3,1-2.3,2.3l0,0c0,1.2,1,2.3,2.3,2.3h22.9c1.2,0,2.3-1,2.3-2.3l0,0
							C72.2,66.9,71.1,65.9,69.9,65.9z"/>
					</g>
					<g>
						<path class="st5" d="M119,62v45.1c0,3.2-2.6,5.7-5.7,5.7H30.6c-3.2,0-5.7-2.6-5.7-5.7V62l47,27.7L119,62z"/>
						<path class="st6" d="M117.4,111.1L87.1,80.8L72,89.7l-15.2-9l-30.3,30.3c1,1.1,2.5,1.8,4.1,1.8h82.6
							C114.9,112.9,116.4,112.2,117.4,111.1z"/>
					</g>
				</g>
			</g>
		</g>
	</g>
</g>
</svg>
